<svg xmlns="http://www.w3.org/2000/svg" xmlns:xlink="http://www.w3.org/1999/xlink" viewBox="0 0 477.02 489.13">
    <defs>
        <style>
            .cls-1 {
                fill: url(#linear-gradient);
            }
        </style>
        <linearGradient id="linear-gradient" y1="244.56" x2="477.02" y2="244.56" gradientUnits="userSpaceOnUse">
            <stop offset="0" stop-color="#ff1e59" />
            <stop offset="1" stop-color="#ff7843" />
        </linearGradient>
    </defs>
    <title>Asset 9</title>
    <g id="Layer_2" data-name="Layer 2">
        <g id="Layer_1-2" data-name="Layer 1">
            <path class="cls-1"
                d="M238.69,489.13A34.68,34.68,0,0,1,214,478.88l-39.63-39.73c-1.48-1.46-2.94-3-4.33-4.65l-41.65,6.59a40.54,40.54,0,0,1-6.41.51,41.28,41.28,0,0,1-40.41-34.45L75,366.78c-2.17-.9-4.27-1.88-6.25-2.93L19,338.22a35,35,0,0,1-15.12-47l25.55-50c1-2,2.07-3.92,3.28-5.86L12.9,196.61a41,41,0,0,1,17.83-55l38.39-19.65c.19-2,.44-3.89.77-5.79l9-55.31A34.9,34.9,0,0,1,119,32l55.4,8.91c1.8.27,3.64.62,5.49,1l30.06-30a41,41,0,0,1,57.83,0l31.43,31.36c2.07-.49,4.16-.89,6.24-1.19l55.36-8.69a35,35,0,0,1,39.93,29l8.83,55.42c.27,1.56.48,3.18.65,4.9l36.35,18.43a41,41,0,0,1,18.05,54.94l-19.87,39.42c1.27,2.06,2.43,4.14,3.44,6.21l25.16,50.08a35,35,0,0,1-15.47,46.88L407.75,364c-1.62.85-3.33,1.65-5.09,2.39l-6.54,40.75a41.28,41.28,0,0,1-40.41,34.45,40.63,40.63,0,0,1-6.41-.51l-41.55-6.58c-1.5,1.77-3.07,3.45-4.67,5L263.31,479A34.72,34.72,0,0,1,238.69,489.13ZM223.6,454.46a21,21,0,0,0,29.6.07l26-25.85A78.46,78.46,0,0,1,238.82,397,78.47,78.47,0,0,1,198,428.82Zm-3.88-194.74a6,6,0,0,0-1.92.32l-83.57,27.59a53.2,53.2,0,0,0-36,59.86L107.17,403a15.07,15.07,0,0,0,14.76,12.59,15.5,15.5,0,0,0,2.35-.18l55.53-8.8a53.22,53.22,0,0,0,45.73-52.82l.22-88a6,6,0,0,0-1.76-4.29A6.09,6.09,0,0,0,219.72,259.72Zm38.2.12a6.09,6.09,0,0,0-4.28,1.8,6,6,0,0,0-1.76,4.29l.22,87.89a53.2,53.2,0,0,0,45.7,52.81l55.56,8.81a15.53,15.53,0,0,0,2.36.18A15.07,15.07,0,0,0,370.47,403l8.9-55.4a53.27,53.27,0,0,0-36-60L269,263.06l-9.22-2.93A6.16,6.16,0,0,0,257.92,259.84ZM388.06,288a79,79,0,0,1,18.06,49.46l31.36-15.84a21,21,0,0,0,9.27-28.1l-16.54-32.95A79.19,79.19,0,0,1,388.06,288ZM30.71,292a21,21,0,0,0,9.07,28.18L71.53,336.5a79.48,79.48,0,0,1,11.33-39,80.29,80.29,0,0,1,6.55-9.28,78.54,78.54,0,0,1-42.46-28Zm87-159.14a54.16,54.16,0,0,0-25,6.23L42.57,164.72a15,15,0,0,0-6.52,20.11l25.51,50.1a53.06,53.06,0,0,0,47.72,29.82,54.49,54.49,0,0,0,16.64-2.63l83.62-26.92a6.06,6.06,0,0,0,3.06-9.31l-11.76-16.31-40.16-54.76A52.89,52.89,0,0,0,117.67,132.85Zm242.08,0a52.86,52.86,0,0,0-43.12,22.13l-51.71,71.12a6.07,6.07,0,0,0,3,9.3l9.13,3,74.76,23.73a54.3,54.3,0,0,0,16.43,2.56,53,53,0,0,0,47.81-30l25.31-50.23a15,15,0,0,0-6.6-20.08l-50-25.37A54.46,54.46,0,0,0,359.75,132.81ZM238.82,26a14.83,14.83,0,0,0-10.56,4.36L188.53,70a53.27,53.27,0,0,0-6.1,69.68l39.42,54.67L234,210.93a6.07,6.07,0,0,0,9.79,0l51.4-71.27a53.2,53.2,0,0,0-6-69.59L249.39,30.32A14.87,14.87,0,0,0,238.82,26Zm79.33,38.6A79.5,79.5,0,0,1,331,101.5a77.68,77.68,0,0,1,.18,10.8,79.41,79.41,0,0,1,51.15-2.15L377,76.49A20.91,20.91,0,0,0,353,59.09ZM117.72,106.85a78,78,0,0,1,28.73,5.43,79.29,79.29,0,0,1,13.27-48.06l-33.58-5.4a20.89,20.89,0,0,0-3.34-.27,21.13,21.13,0,0,0-20.67,17.58l-5.48,33.59A78.66,78.66,0,0,1,117.72,106.85Z" />
        </g>
    </g>
</svg>