<svg xmlns="http://www.w3.org/2000/svg" xmlns:xlink="http://www.w3.org/1999/xlink" viewBox="0 0 489.23 489.88"><defs><style>.cls-1{fill:none;}.cls-2{clip-path:url(#clip-path);}.cls-3{fill:#ff3254;}.cls-4{fill:#ff3354;}.cls-5{fill:#ff3454;}.cls-6{fill:#ff3553;}.cls-7{fill:#ff3653;}.cls-8{fill:#ff3753;}.cls-9{fill:#ff3853;}.cls-10{fill:#ff3952;}.cls-11{fill:#ff3a52;}.cls-12{fill:#ff5c4a;}.cls-13{fill:#ff5d4a;}.cls-14{fill:#ff5e49;}.cls-15{fill:#ff5f49;}.cls-16{fill:#ff6049;}.cls-17{fill:#ff6149;}.cls-18{fill:#ff6248;}.cls-19{fill:#ff6348;}.cls-20{fill:#ff6448;}.cls-21{fill:#ff6548;}.cls-22{fill:#ff3e51;}.cls-23{fill:#ff3f51;}.cls-24{fill:#ff4051;}.cls-25{fill:#ff4150;}.cls-26{fill:#ff4250;}.cls-27{fill:#ff4350;}.cls-28{fill:#ff4450;}.cls-29{fill:#ff454f;}.cls-30{fill:#ff464f;}.cls-31{fill:#ff474f;}.cls-32{fill:#ff484f;}.cls-33{fill:#ff494e;}.cls-34{fill:#ff4a4e;}.cls-35{fill:#ff4c4e;}.cls-36{fill:#ff4d4e;}.cls-37{fill:#ff4e4d;}.cls-38{fill:#ff4f4d;}.cls-39{fill:#ff504d;}.cls-40{fill:#ff514d;}.cls-41{fill:#ff524c;}.cls-42{fill:#ff534c;}.cls-43{fill:#ff544c;}.cls-44{fill:#ff554c;}.cls-45{fill:#ff564b;}.cls-46{fill:#ff574b;}.cls-47{fill:#ff584b;}.cls-48{fill:#ff594b;}.cls-49{fill:#ff5a4a;}.cls-50{fill:#ff5b4a;}.cls-51{fill:#ff6647;}.cls-52{fill:#ff6747;}.cls-53{fill:#ff6847;}.cls-54{fill:#ff6947;}.cls-55{fill:#ff6a46;}.cls-56{fill:#ff6b46;}.cls-57{fill:#ff6c46;}.cls-58{fill:#ff6d46;}.cls-59{fill:#ff6e45;}.cls-60{fill:#ff6f45;}.cls-61{fill:#ff7045;}.cls-62{fill:#ff2657;}.cls-63{fill:#ff2757;}.cls-64{fill:#ff2857;}.cls-65{fill:#ff2956;}.cls-66{fill:#ff2a56;}.cls-67{fill:#ff2b56;}.cls-68{fill:#ff2c56;}.cls-69{fill:#ff2d55;}.cls-70{fill:#ff2e55;}.cls-71{fill:#ff2f55;}.cls-72{fill:#ff3055;}.cls-73{fill:#ff3154;}.cls-74{fill:#ff3b52;}.cls-75{fill:#ff3c52;}.cls-76{fill:#ff3d51;}.cls-77{fill:#ff2458;}.cls-78{fill:#ff2557;}.cls-79{fill:#ff7145;}.cls-80{fill:#ff7244;}.cls-81{fill:#ff1e59;}.cls-82{fill:#ff1f59;}.cls-83{fill:#ff2059;}.cls-84{fill:#ff2158;}.cls-85{fill:#ff2258;}.cls-86{fill:#ff2358;}.cls-87{fill:#ff7344;}.cls-88{fill:#ff7444;}.cls-89{fill:#ff7544;}.cls-90{fill:#ff7643;}.cls-91{fill:#ff7743;}.cls-92{fill:#ff7843;}</style><clipPath id="clip-path" transform="translate(5.61 0)"><path class="cls-1" d="M239.19,489.88A39.46,39.46,0,0,1,211,478.21l-38.79-38.89c-.81-.79-1.63-1.64-2.44-2.52l-37.76,6A45.63,45.63,0,0,1,79.87,405L74,368.44c-1.27-.59-2.52-1.2-3.71-1.83L21.56,341.55A39.83,39.83,0,0,1,4.35,288.08l25-48.9c.56-1.12,1.17-2.26,1.81-3.4L13.23,200.52A45.7,45.7,0,0,1,33.1,139.21L68,121.32c.14-1,.29-2,.46-3l8.83-54.09a39.72,39.72,0,0,1,45.55-32.85l54.23,8.72c.88.13,1.78.29,2.69.46l27.3-27.24a45.69,45.69,0,0,1,64.45,0l28.63,28.57c1.17-.23,2.35-.43,3.52-.6l54.13-8.5a39.77,39.77,0,0,1,45.43,33L411.89,120c.11.67.22,1.36.32,2.07l32.92,16.69A45.69,45.69,0,0,1,465.25,200l-18.08,35.88c.72,1.28,1.4,2.57,2,3.85l24.6,49a39.82,39.82,0,0,1-17.6,53.33l-49,24.76c-.8.42-1.63.83-2.48,1.23L398.76,405a45.63,45.63,0,0,1-52.18,37.83l-37.66-6c-.94,1-1.89,2-2.84,2.92L267.2,478.35A39.53,39.53,0,0,1,239.19,489.88Zm-10.84-43.42a15,15,0,0,0,21.12.05L269,427.13a82.45,82.45,0,0,1-29.68-23.44,82.33,82.33,0,0,1-30.05,23.63Zm29.52-94.6a46.55,46.55,0,0,0,40,46.22l54.44,8.62a8.72,8.72,0,0,0,1.43.12,9.16,9.16,0,0,0,9-7.65l8.71-54.23A46.66,46.66,0,0,0,340,292.36l-72.84-24.05-9.46-3Zm-119.19-59.5a46.57,46.57,0,0,0-31.49,52.39l8.75,54.42a9.15,9.15,0,0,0,9,7.65,9.73,9.73,0,0,0,1.43-.11l54.37-8.62a46.59,46.59,0,0,0,40.07-46.23l.22-86.67Zm255.84-1.94c.77,1.15,1.5,2.31,2.21,3.47a83.85,83.85,0,0,1,11.34,33.24l23.19-11.71a15,15,0,0,0,6.62-20.07l-12.51-24.9a84,84,0,0,1-26.85,18.39C397.2,289.4,395.87,289.93,394.52,290.42Zm-354,3.47A15,15,0,0,0,47,314l23.65,12.16A83.68,83.68,0,0,1,81.9,293.9c.66-1.1,1.35-2.18,2.06-3.26A82.34,82.34,0,0,1,52.7,270.15Zm80.17-152.74a47.25,47.25,0,0,0-21.92,5.46L49.75,171.72a9.11,9.11,0,0,0-4,12.22l25,49.05a46.46,46.46,0,0,0,41.76,26.15,47.32,47.32,0,0,0,14.58-2.31l82.35-26.5L197.63,214l-39.28-53.57A46.28,46.28,0,0,0,120.73,141.15ZM278.49,233.6l73.12,23.21a47.68,47.68,0,0,0,14.4,2.25,46.38,46.38,0,0,0,41.81-26.25l24.81-49.22a9.12,9.12,0,0,0-4-12.21l-49-24.83a47.18,47.18,0,0,0-21.94-5.44A46.21,46.21,0,0,0,320,160.48l-50.9,70ZM239.32,36.52a9,9,0,0,0-6.42,2.64L194,78a46.64,46.64,0,0,0-5.39,61l38.59,53.52,12.21,16.65L290,139a46.55,46.55,0,0,0-5.25-60.89l-39-38.93A9,9,0,0,0,239.32,36.52ZM325.89,73a83.75,83.75,0,0,1,9.19,31.45c.1,1.11.17,2.22.22,3.34,1.14-.32,2.29-.62,3.43-.89a83.57,83.57,0,0,1,34.27-.82L369.06,81.3A15.08,15.08,0,0,0,354.3,68.69a15.24,15.24,0,0,0-2.33.18ZM120.78,104.59a82.18,82.18,0,0,1,22.55,3.13c0-1.11.12-2.21.22-3.3a83.58,83.58,0,0,1,9.39-31.82l-24.8-4a14.92,14.92,0,0,0-2.39-.2A15.09,15.09,0,0,0,111,81l-4,24.78A83.37,83.37,0,0,1,120.78,104.59Z"/></clipPath></defs><title>Asset 11</title><g id="Layer_2" data-name="Layer 2"><g id="Layer_1-2" data-name="Layer 1"><g class="cls-2"><rect class="cls-3" x="112.56" y="68.41" width="5.03" height="39.3"/><rect class="cls-4" x="117.59" y="68.41" width="5.3" height="39.3"/><rect class="cls-5" x="122.9" y="68.41" width="5.3" height="39.3"/><rect class="cls-6" x="128.2" y="68.41" width="5.3" height="39.3"/><rect class="cls-7" x="133.51" y="68.41" width="5.3" height="39.3"/><rect class="cls-8" x="138.81" y="68.41" width="5.3" height="39.3"/><rect class="cls-9" x="144.12" y="68.41" width="5.3" height="39.3"/><rect class="cls-10" x="149.42" y="68.41" width="5.3" height="39.3"/><rect class="cls-11" x="154.73" y="68.41" width="3.82" height="39.3"/><rect class="cls-12" x="331.5" y="68.69" width="3.59" height="39.07"/><rect class="cls-13" x="335.09" y="68.69" width="5.3" height="39.07"/><rect class="cls-14" x="340.4" y="68.69" width="5.3" height="39.07"/><rect class="cls-15" x="345.7" y="68.69" width="5.3" height="39.07"/><rect class="cls-16" x="351.01" y="68.69" width="5.3" height="39.07"/><rect class="cls-17" x="356.31" y="68.69" width="5.3" height="39.07"/><rect class="cls-18" x="361.62" y="68.69" width="5.3" height="39.07"/><rect class="cls-19" x="366.92" y="68.69" width="5.3" height="39.07"/><rect class="cls-20" x="372.23" y="68.69" width="5.3" height="39.07"/><rect class="cls-21" x="377.53" y="68.69" width="1.08" height="39.07"/><rect class="cls-22" x="180.56" y="36.52" width="0.69" height="172.63"/><rect class="cls-23" x="181.25" y="36.52" width="5.3" height="172.63"/><rect class="cls-24" x="186.56" y="36.52" width="5.3" height="172.63"/><rect class="cls-25" x="191.86" y="36.52" width="5.3" height="172.63"/><rect class="cls-26" x="197.17" y="36.52" width="5.3" height="172.63"/><rect class="cls-27" x="202.47" y="36.52" width="5.3" height="172.63"/><rect class="cls-28" x="207.77" y="36.52" width="5.3" height="172.63"/><rect class="cls-29" x="213.08" y="36.52" width="5.3" height="172.63"/><rect class="cls-30" x="218.38" y="36.52" width="5.3" height="172.63"/><rect class="cls-31" x="223.69" y="36.52" width="5.3" height="172.63"/><rect class="cls-32" x="228.99" y="36.52" width="5.3" height="172.63"/><rect class="cls-33" x="234.3" y="36.52" width="5.3" height="172.63"/><rect class="cls-34" x="239.6" y="36.52" width="5.3" height="172.63"/><rect class="cls-35" x="244.91" y="36.52" width="5.3" height="172.63"/><rect class="cls-36" x="250.21" y="36.52" width="5.3" height="172.63"/><rect class="cls-37" x="255.52" y="36.52" width="5.3" height="172.63"/><rect class="cls-38" x="260.82" y="36.52" width="5.3" height="172.63"/><rect class="cls-39" x="266.13" y="36.52" width="5.3" height="172.63"/><rect class="cls-40" x="271.43" y="36.52" width="5.3" height="172.63"/><rect class="cls-41" x="276.74" y="36.52" width="5.3" height="172.63"/><rect class="cls-42" x="282.04" y="36.52" width="5.3" height="172.63"/><rect class="cls-43" x="287.35" y="36.52" width="5.3" height="172.63"/><rect class="cls-44" x="292.65" y="36.52" width="5.3" height="172.63"/><rect class="cls-45" x="297.96" y="36.52" width="5.3" height="172.63"/><rect class="cls-46" x="303.26" y="36.52" width="5.3" height="172.63"/><rect class="cls-47" x="308.57" y="36.52" width="0.72" height="172.63"/><rect class="cls-40" x="274.68" y="141.11" width="2.06" height="117.95"/><rect class="cls-41" x="276.74" y="141.11" width="5.3" height="117.95"/><rect class="cls-42" x="282.04" y="141.11" width="5.3" height="117.95"/><rect class="cls-43" x="287.35" y="141.11" width="5.3" height="117.95"/><rect class="cls-44" x="292.65" y="141.11" width="5.3" height="117.95"/><rect class="cls-45" x="297.96" y="141.11" width="5.3" height="117.95"/><rect class="cls-46" x="303.26" y="141.11" width="5.3" height="117.95"/><rect class="cls-47" x="308.57" y="141.11" width="5.3" height="117.95"/><rect class="cls-48" x="313.87" y="141.11" width="5.3" height="117.95"/><rect class="cls-49" x="319.18" y="141.11" width="5.3" height="117.95"/><rect class="cls-50" x="324.48" y="141.11" width="5.3" height="117.95"/><rect class="cls-12" x="329.79" y="141.11" width="5.3" height="117.95"/><rect class="cls-13" x="335.09" y="141.11" width="5.3" height="117.95"/><rect class="cls-14" x="340.4" y="141.11" width="5.3" height="117.95"/><rect class="cls-15" x="345.7" y="141.11" width="5.3" height="117.95"/><rect class="cls-16" x="351.01" y="141.11" width="5.3" height="117.95"/><rect class="cls-17" x="356.31" y="141.11" width="5.3" height="117.95"/><rect class="cls-18" x="361.62" y="141.11" width="5.3" height="117.95"/><rect class="cls-19" x="366.92" y="141.11" width="5.3" height="117.95"/><rect class="cls-20" x="372.23" y="141.11" width="5.3" height="117.95"/><rect class="cls-21" x="377.53" y="141.11" width="5.3" height="117.95"/><rect class="cls-51" x="382.84" y="141.11" width="5.3" height="117.95"/><rect class="cls-52" x="388.14" y="141.11" width="5.3" height="117.95"/><rect class="cls-53" x="393.45" y="141.11" width="5.3" height="117.95"/><rect class="cls-54" x="398.75" y="141.11" width="5.3" height="117.95"/><rect class="cls-55" x="404.05" y="141.11" width="5.3" height="117.95"/><rect class="cls-56" x="409.36" y="141.11" width="5.3" height="117.95"/><rect class="cls-57" x="414.66" y="141.11" width="5.3" height="117.95"/><rect class="cls-58" x="419.97" y="141.11" width="5.3" height="117.95"/><rect class="cls-59" x="425.27" y="141.11" width="5.3" height="117.95"/><rect class="cls-60" x="430.58" y="141.11" width="5.3" height="117.95"/><rect class="cls-61" x="435.88" y="141.11" width="4.61" height="117.95"/><rect class="cls-62" x="49.13" y="141.15" width="4.8" height="118"/><rect class="cls-63" x="53.93" y="141.15" width="5.3" height="118"/><rect class="cls-64" x="59.24" y="141.15" width="5.3" height="118"/><rect class="cls-65" x="64.54" y="141.15" width="5.3" height="118"/><rect class="cls-66" x="69.85" y="141.15" width="5.3" height="118"/><rect class="cls-67" x="75.15" y="141.15" width="5.3" height="118"/><rect class="cls-68" x="80.46" y="141.15" width="5.3" height="118"/><rect class="cls-69" x="85.76" y="141.15" width="5.3" height="118"/><rect class="cls-70" x="91.07" y="141.15" width="5.3" height="118"/><rect class="cls-71" x="96.37" y="141.15" width="5.3" height="118"/><rect class="cls-72" x="101.68" y="141.15" width="5.3" height="118"/><rect class="cls-73" x="106.98" y="141.15" width="5.3" height="118"/><rect class="cls-3" x="112.29" y="141.15" width="5.3" height="118"/><rect class="cls-4" x="117.59" y="141.15" width="5.3" height="118"/><rect class="cls-5" x="122.9" y="141.15" width="5.3" height="118"/><rect class="cls-6" x="128.2" y="141.15" width="5.3" height="118"/><rect class="cls-7" x="133.51" y="141.15" width="5.3" height="118"/><rect class="cls-8" x="138.81" y="141.15" width="5.3" height="118"/><rect class="cls-9" x="144.12" y="141.15" width="5.3" height="118"/><rect class="cls-10" x="149.42" y="141.15" width="5.3" height="118"/><rect class="cls-11" x="154.73" y="141.15" width="5.3" height="118"/><rect class="cls-74" x="160.03" y="141.15" width="5.3" height="118"/><rect class="cls-75" x="165.34" y="141.15" width="5.3" height="118"/><rect class="cls-76" x="170.64" y="141.15" width="5.3" height="118"/><rect class="cls-22" x="175.95" y="141.15" width="5.3" height="118"/><rect class="cls-23" x="181.25" y="141.15" width="5.3" height="118"/><rect class="cls-24" x="186.56" y="141.15" width="5.3" height="118"/><rect class="cls-25" x="191.86" y="141.15" width="5.3" height="118"/><rect class="cls-26" x="197.17" y="141.15" width="5.3" height="118"/><rect class="cls-27" x="202.47" y="141.15" width="5.3" height="118"/><rect class="cls-28" x="207.77" y="141.15" width="5.3" height="118"/><rect class="cls-29" x="213.08" y="141.15" width="1.98" height="118"/><rect class="cls-77" x="42.42" y="270.15" width="0.91" height="56.02"/><rect class="cls-78" x="43.32" y="270.15" width="5.3" height="56.02"/><rect class="cls-62" x="48.63" y="270.15" width="5.3" height="56.02"/><rect class="cls-63" x="53.93" y="270.15" width="5.3" height="56.02"/><rect class="cls-64" x="59.24" y="270.15" width="5.3" height="56.02"/><rect class="cls-65" x="64.54" y="270.15" width="5.3" height="56.02"/><rect class="cls-66" x="69.85" y="270.15" width="5.3" height="56.02"/><rect class="cls-67" x="75.15" y="270.15" width="5.3" height="56.02"/><rect class="cls-68" x="80.46" y="270.15" width="5.3" height="56.02"/><rect class="cls-69" x="85.76" y="270.15" width="3.81" height="56.02"/><rect class="cls-54" x="400.13" y="270.45" width="3.93" height="56.68"/><rect class="cls-55" x="404.05" y="270.45" width="5.3" height="56.68"/><rect class="cls-56" x="409.36" y="270.45" width="5.3" height="56.68"/><rect class="cls-57" x="414.66" y="270.45" width="5.3" height="56.68"/><rect class="cls-58" x="419.97" y="270.45" width="5.3" height="56.68"/><rect class="cls-59" x="425.27" y="270.45" width="5.3" height="56.68"/><rect class="cls-60" x="430.58" y="270.45" width="5.3" height="56.68"/><rect class="cls-61" x="435.88" y="270.45" width="5.3" height="56.68"/><rect class="cls-79" x="441.19" y="270.45" width="5.3" height="56.68"/><rect class="cls-80" x="446.49" y="270.45" width="0.69" height="56.68"/><rect class="cls-73" x="108.86" y="265.19" width="3.43" height="141.63"/><rect class="cls-3" x="112.29" y="265.19" width="5.3" height="141.63"/><rect class="cls-4" x="117.59" y="265.19" width="5.3" height="141.63"/><rect class="cls-5" x="122.9" y="265.19" width="5.3" height="141.63"/><rect class="cls-6" x="128.2" y="265.19" width="5.3" height="141.63"/><rect class="cls-7" x="133.51" y="265.19" width="5.3" height="141.63"/><rect class="cls-8" x="138.81" y="265.19" width="5.3" height="141.63"/><rect class="cls-9" x="144.12" y="265.19" width="5.3" height="141.63"/><rect class="cls-10" x="149.42" y="265.19" width="5.3" height="141.63"/><rect class="cls-11" x="154.73" y="265.19" width="5.3" height="141.63"/><rect class="cls-74" x="160.03" y="265.19" width="5.3" height="141.63"/><rect class="cls-75" x="165.34" y="265.19" width="5.3" height="141.63"/><rect class="cls-76" x="170.64" y="265.19" width="5.3" height="141.63"/><rect class="cls-22" x="175.95" y="265.19" width="5.3" height="141.63"/><rect class="cls-23" x="181.25" y="265.19" width="5.3" height="141.63"/><rect class="cls-24" x="186.56" y="265.19" width="5.3" height="141.63"/><rect class="cls-25" x="191.86" y="265.19" width="5.3" height="141.63"/><rect class="cls-26" x="197.17" y="265.19" width="5.3" height="141.63"/><rect class="cls-27" x="202.47" y="265.19" width="5.3" height="141.63"/><rect class="cls-28" x="207.77" y="265.19" width="5.3" height="141.63"/><rect class="cls-29" x="213.08" y="265.19" width="5.3" height="141.63"/><rect class="cls-30" x="218.38" y="265.19" width="5.3" height="141.63"/><rect class="cls-31" x="223.69" y="265.19" width="2.9" height="141.63"/><rect class="cls-38" x="263.26" y="265.31" width="2.87" height="141.51"/><rect class="cls-39" x="266.13" y="265.31" width="5.3" height="141.51"/><rect class="cls-40" x="271.43" y="265.31" width="5.3" height="141.51"/><rect class="cls-41" x="276.74" y="265.31" width="5.3" height="141.51"/><rect class="cls-42" x="282.04" y="265.31" width="5.3" height="141.51"/><rect class="cls-43" x="287.35" y="265.31" width="5.3" height="141.51"/><rect class="cls-44" x="292.65" y="265.31" width="5.3" height="141.51"/><rect class="cls-45" x="297.96" y="265.31" width="5.3" height="141.51"/><rect class="cls-46" x="303.26" y="265.31" width="5.3" height="141.51"/><rect class="cls-47" x="308.57" y="265.31" width="5.3" height="141.51"/><rect class="cls-48" x="313.87" y="265.31" width="5.3" height="141.51"/><rect class="cls-49" x="319.18" y="265.31" width="5.3" height="141.51"/><rect class="cls-50" x="324.48" y="265.31" width="5.3" height="141.51"/><rect class="cls-12" x="329.79" y="265.31" width="5.3" height="141.51"/><rect class="cls-13" x="335.09" y="265.31" width="5.3" height="141.51"/><rect class="cls-14" x="340.4" y="265.31" width="5.3" height="141.51"/><rect class="cls-15" x="345.7" y="265.31" width="5.3" height="141.51"/><rect class="cls-16" x="351.01" y="265.31" width="5.3" height="141.51"/><rect class="cls-17" x="356.31" y="265.31" width="5.3" height="141.51"/><rect class="cls-18" x="361.62" y="265.31" width="5.3" height="141.51"/><rect class="cls-19" x="366.92" y="265.31" width="5.3" height="141.51"/><rect class="cls-20" x="372.23" y="265.31" width="5.3" height="141.51"/><rect class="cls-21" x="377.53" y="265.31" width="3.45" height="141.51"/><rect class="cls-29" x="214.87" y="403.69" width="3.52" height="47.16"/><rect class="cls-30" x="218.38" y="403.69" width="5.3" height="47.16"/><rect class="cls-31" x="223.69" y="403.69" width="5.3" height="47.16"/><rect class="cls-32" x="228.99" y="403.69" width="5.3" height="47.16"/><rect class="cls-33" x="234.3" y="403.69" width="5.3" height="47.16"/><rect class="cls-34" x="239.6" y="403.69" width="5.3" height="47.16"/><rect class="cls-35" x="244.91" y="403.69" width="5.3" height="47.16"/><rect class="cls-36" x="250.21" y="403.69" width="5.3" height="47.16"/><rect class="cls-37" x="255.52" y="403.69" width="5.3" height="47.16"/><rect class="cls-38" x="260.82" y="403.69" width="5.3" height="47.16"/><rect class="cls-39" x="266.13" y="403.69" width="5.3" height="47.16"/><rect class="cls-40" x="271.43" y="403.69" width="3.17" height="47.16"/><rect class="cls-81" width="6.19" height="489.88"/><rect class="cls-81" x="6.19" width="5.3" height="489.88"/><rect class="cls-82" x="11.49" width="5.3" height="489.88"/><rect class="cls-83" x="16.8" width="5.3" height="489.88"/><rect class="cls-84" x="22.1" width="5.3" height="489.88"/><rect class="cls-85" x="27.41" width="5.3" height="489.88"/><rect class="cls-86" x="32.71" width="5.3" height="489.88"/><rect class="cls-77" x="38.02" width="5.3" height="489.88"/><rect class="cls-78" x="43.32" width="5.3" height="489.88"/><rect class="cls-62" x="48.63" width="5.3" height="489.88"/><rect class="cls-63" x="53.93" width="5.3" height="489.88"/><rect class="cls-64" x="59.24" width="5.3" height="489.88"/><rect class="cls-65" x="64.54" width="5.3" height="489.88"/><rect class="cls-66" x="69.85" width="5.3" height="489.88"/><rect class="cls-67" x="75.15" width="5.3" height="489.88"/><rect class="cls-68" x="80.46" width="5.3" height="489.88"/><rect class="cls-69" x="85.76" width="5.3" height="489.88"/><rect class="cls-70" x="91.07" width="5.3" height="489.88"/><rect class="cls-71" x="96.37" width="5.3" height="489.88"/><rect class="cls-72" x="101.68" width="5.3" height="489.88"/><rect class="cls-73" x="106.98" width="5.3" height="489.88"/><rect class="cls-3" x="112.29" width="5.3" height="489.88"/><rect class="cls-4" x="117.59" width="5.3" height="489.88"/><rect class="cls-5" x="122.9" width="5.3" height="489.88"/><rect class="cls-6" x="128.2" width="5.3" height="489.88"/><rect class="cls-7" x="133.51" width="5.3" height="489.88"/><rect class="cls-8" x="138.81" width="5.3" height="489.88"/><rect class="cls-9" x="144.12" width="5.3" height="489.88"/><rect class="cls-10" x="149.42" width="5.3" height="489.88"/><rect class="cls-11" x="154.73" width="5.3" height="489.88"/><rect class="cls-74" x="160.03" width="5.3" height="489.88"/><rect class="cls-75" x="165.34" width="5.3" height="489.88"/><rect class="cls-76" x="170.64" width="5.3" height="489.88"/><rect class="cls-22" x="175.95" width="5.3" height="489.88"/><rect class="cls-23" x="181.25" width="5.3" height="489.88"/><rect class="cls-24" x="186.56" width="5.3" height="489.88"/><rect class="cls-25" x="191.86" width="5.3" height="489.88"/><rect class="cls-26" x="197.17" width="5.3" height="489.88"/><rect class="cls-27" x="202.47" width="5.3" height="489.88"/><rect class="cls-28" x="207.77" width="5.3" height="489.88"/><rect class="cls-29" x="213.08" width="5.3" height="489.88"/><rect class="cls-30" x="218.38" width="5.3" height="489.88"/><rect class="cls-31" x="223.69" width="5.3" height="489.88"/><rect class="cls-32" x="228.99" width="5.3" height="489.88"/><rect class="cls-33" x="234.3" width="5.3" height="489.88"/><rect class="cls-34" x="239.6" width="5.3" height="489.88"/><rect class="cls-35" x="244.91" width="5.3" height="489.88"/><rect class="cls-36" x="250.21" width="5.3" height="489.88"/><rect class="cls-37" x="255.52" width="5.3" height="489.88"/><rect class="cls-38" x="260.82" width="5.3" height="489.88"/><rect class="cls-39" x="266.13" width="5.3" height="489.88"/><rect class="cls-40" x="271.43" width="5.3" height="489.88"/><rect class="cls-41" x="276.74" width="5.3" height="489.88"/><rect class="cls-42" x="282.04" width="5.3" height="489.88"/><rect class="cls-43" x="287.35" width="5.3" height="489.88"/><rect class="cls-44" x="292.65" width="5.3" height="489.88"/><rect class="cls-45" x="297.96" width="5.3" height="489.88"/><rect class="cls-46" x="303.26" width="5.3" height="489.88"/><rect class="cls-47" x="308.57" width="5.3" height="489.88"/><rect class="cls-48" x="313.87" width="5.3" height="489.88"/><rect class="cls-49" x="319.18" width="5.3" height="489.88"/><rect class="cls-50" x="324.48" width="5.3" height="489.88"/><rect class="cls-12" x="329.79" width="5.3" height="489.88"/><rect class="cls-13" x="335.09" width="5.3" height="489.88"/><rect class="cls-14" x="340.4" width="5.3" height="489.88"/><rect class="cls-15" x="345.7" width="5.3" height="489.88"/><rect class="cls-16" x="351.01" width="5.3" height="489.88"/><rect class="cls-17" x="356.31" width="5.3" height="489.88"/><rect class="cls-18" x="361.62" width="5.3" height="489.88"/><rect class="cls-19" x="366.92" width="5.3" height="489.88"/><rect class="cls-20" x="372.23" width="5.3" height="489.88"/><rect class="cls-21" x="377.53" width="5.3" height="489.88"/><rect class="cls-51" x="382.84" width="5.3" height="489.88"/><rect class="cls-52" x="388.14" width="5.3" height="489.88"/><rect class="cls-53" x="393.45" width="5.3" height="489.88"/><rect class="cls-54" x="398.75" width="5.3" height="489.88"/><rect class="cls-55" x="404.05" width="5.3" height="489.88"/><rect class="cls-56" x="409.36" width="5.3" height="489.88"/><rect class="cls-57" x="414.66" width="5.3" height="489.88"/><rect class="cls-58" x="419.97" width="5.3" height="489.88"/><rect class="cls-59" x="425.27" width="5.3" height="489.88"/><rect class="cls-60" x="430.58" width="5.3" height="489.88"/><rect class="cls-61" x="435.88" width="5.3" height="489.88"/><rect class="cls-79" x="441.19" width="5.3" height="489.88"/><rect class="cls-80" x="446.49" width="5.3" height="489.88"/><rect class="cls-87" x="451.8" width="5.3" height="489.88"/><rect class="cls-88" x="457.1" width="5.3" height="489.88"/><rect class="cls-89" x="462.41" width="5.3" height="489.88"/><rect class="cls-90" x="467.71" width="5.3" height="489.88"/><rect class="cls-91" x="473.02" width="5.3" height="489.88"/><rect class="cls-92" x="478.32" width="5.3" height="489.88"/><rect class="cls-92" x="483.63" width="5.6" height="489.88"/></g></g></g></svg>