<svg xmlns="http://www.w3.org/2000/svg" viewBox="0 0 478.02 489.88"><defs><style>.cls-1{fill:#fff;}</style></defs><title>Asset 12</title><g id="Layer_2" data-name="Layer 2"><g id="Layer_1-2" data-name="Layer 1"><path class="cls-1" d="M473.8,288.72l-24.6-49c-.63-1.28-1.31-2.57-2-3.85L465.25,200a45.69,45.69,0,0,0-20.12-61.23l-32.92-16.69c-.1-.71-.21-1.4-.32-2.07l-8.64-54.25a39.77,39.77,0,0,0-45.43-33l-54.13,8.5c-1.17.17-2.35.37-3.52.6L271.54,13.3a45.69,45.69,0,0,0-64.45,0l-27.3,27.24c-.91-.17-1.81-.33-2.69-.46l-54.23-8.72A39.72,39.72,0,0,0,77.32,64.21L68.49,118.3c-.17,1-.32,2-.46,3L33.1,139.21a45.7,45.7,0,0,0-19.87,61.31l18,35.26c-.64,1.14-1.25,2.28-1.81,3.4l-25,48.9a39.83,39.83,0,0,0,17.21,53.47l48.73,25.06c1.19.63,2.44,1.24,3.71,1.83L79.87,405a45.63,45.63,0,0,0,52.18,37.83l37.76-6c.81.88,1.63,1.73,2.44,2.52L211,478.21a39.79,39.79,0,0,0,56.16.14l38.88-38.61c.95-.93,1.9-1.91,2.84-2.92l37.66,6A45.63,45.63,0,0,0,398.76,405L404.69,368c.85-.4,1.68-.81,2.48-1.23l49-24.76A39.82,39.82,0,0,0,473.8,288.72ZM40.56,293.89,52.7,270.15A82.34,82.34,0,0,0,84,290.64c-.71,1.08-1.4,2.16-2.06,3.26a83.68,83.68,0,0,0-11.22,32.26L47,314A15,15,0,0,1,40.56,293.89Zm5.23-109.95a9.11,9.11,0,0,1,4-12.22l49.06-25.11a47.25,47.25,0,0,1,21.92-5.46,46.28,46.28,0,0,1,37.62,19.23L197.63,214l11.82,16.38-82.35,26.5a47.32,47.32,0,0,1-14.58,2.31A46.46,46.46,0,0,1,70.76,233ZM128.14,68.61l24.8,4a83.58,83.58,0,0,0-9.39,31.82c-.1,1.09-.17,2.19-.22,3.3a82.18,82.18,0,0,0-22.55-3.13A83.37,83.37,0,0,0,107,105.75L111,81a15.09,15.09,0,0,1,14.75-12.56A14.92,14.92,0,0,1,128.14,68.61ZM290,139l-50.59,70.17L227.21,192.5,188.62,139A46.64,46.64,0,0,1,194,78l38.89-38.8a9.13,9.13,0,0,1,12.84,0l39,38.93A46.55,46.55,0,0,1,290,139ZM115.94,399.17l-8.75-54.42a46.57,46.57,0,0,1,31.49-52.39L221,265.19l-.22,86.67a46.59,46.59,0,0,1-40.07,46.23l-54.37,8.62a9.73,9.73,0,0,1-1.43.11A9.15,9.15,0,0,1,115.94,399.17Zm123.37,4.52A82.45,82.45,0,0,0,269,427.13l-19.52,19.38a15,15,0,0,1-21.12-.05l-19.09-19.14A82.33,82.33,0,0,0,239.31,403.69Zm18.56-51.83-.22-86.55,9.46,3L340,292.36a46.66,46.66,0,0,1,31.45,52.58l-8.71,54.23a9.16,9.16,0,0,1-9,7.65,8.72,8.72,0,0,1-1.43-.12l-54.44-8.62A46.55,46.55,0,0,1,257.87,351.86ZM278.49,233.6l-9.42-3.11,50.9-70a46.21,46.21,0,0,1,37.71-19.37,47.18,47.18,0,0,1,21.94,5.44l49,24.83a9.12,9.12,0,0,1,4,12.21l-24.81,49.22A46.38,46.38,0,0,1,366,259.06a47.68,47.68,0,0,1-14.4-2.25ZM373,106.05a83.57,83.57,0,0,0-34.27.82c-1.14.27-2.29.57-3.43.89-.05-1.12-.12-2.23-.22-3.34A83.75,83.75,0,0,0,325.89,73L352,68.87a15.24,15.24,0,0,1,2.33-.18A15.08,15.08,0,0,1,369.06,81.3Zm25.52,182.79a84,84,0,0,0,26.85-18.39l12.51,24.9a15,15,0,0,1-6.62,20.07l-23.19,11.71a83.85,83.85,0,0,0-11.34-33.24c-.71-1.16-1.44-2.32-2.21-3.47C395.87,289.93,397.2,289.4,398.52,288.84Z"/></g></g></svg>