<svg xmlns="http://www.w3.org/2000/svg" xmlns:xlink="http://www.w3.org/1999/xlink" viewBox="0 0 1021.03 1047.22">
    <defs>
        <style>
            .cls-1 {
                fill: url(#linear-gradient);
            }
        </style>
        <linearGradient id="linear-gradient" y1="523.61" x2="1021.03" y2="523.61" gradientUnits="userSpaceOnUse">
            <stop offset="0" stop-color="#ff1e59" />
            <stop offset="1" stop-color="#ff7843" />
        </linearGradient>
    </defs>
    <title>Asset 8</title>
    <g id="Layer_2" data-name="Layer 2">
        <g id="Layer_1-2" data-name="Layer 1">
            <path class="cls-1"
                d="M1013.57,628.31,959.13,519.93a153.21,153.21,0,0,0-8.78-15.53l44.35-88A83.28,83.28,0,0,0,958,304.82l-81.3-41.21c-.36-4.42-.88-8.83-1.63-13.23L856,130.5a70.31,70.31,0,0,0-80.19-58.29L656,91a154.51,154.51,0,0,0-15.94,3.21l-70.14-70a83.28,83.28,0,0,0-117.45,0l-67.17,67c-4.73-1.18-9.53-2.16-14.4-2.89L251.05,69.08a70.28,70.28,0,0,0-80.41,58l-19.53,119.7c-.87,5-1.48,10-1.86,15L63.53,305.69A83.29,83.29,0,0,0,27.32,417.43l44.13,86.68A153.6,153.6,0,0,0,63,518.94L7.68,627a70.31,70.31,0,0,0,30.38,94.38l107.85,55.47a154.64,154.64,0,0,0,15.86,7.23l14.51,90.36a83.09,83.09,0,0,0,95.09,68.93l93.1-14.75a151.23,151.23,0,0,0,11,12.06l85.71,86a70.29,70.29,0,0,0,99.14.25l86.06-85.46a154.69,154.69,0,0,0,11.71-12.76L751,943.38a83.09,83.09,0,0,0,95.09-68.93l14.63-91.13c4.55-1.83,9-3.88,13.43-6.15l108.35-54.73A70.27,70.27,0,0,0,1013.57,628.31ZM954.18,396l-36.35,72.12h0l-16.71,33.16h0l-1.57,3.11-.11.22A120.44,120.44,0,0,1,754,566.69L592.23,515.35l-43.74-14.44,14.78-20.5L675.12,326.56c35.55-48.89,100.29-64.15,154.13-36.14L937.52,345.3A37.83,37.83,0,0,1,954.18,396ZM815.37,159.2l13,81.51a166.11,166.11,0,0,0-123.43,5.2A165.76,165.76,0,0,0,673.4,130.25l84-13.19A50.82,50.82,0,0,1,815.37,159.2ZM484.52,56.35a37.82,37.82,0,0,1,53.35,0l57.48,57.35h0l.34.34L624,142.26a120.44,120.44,0,0,1,13.6,157.54L526.66,453.6l-15.19,20.9-41.38-56.43L384.82,299.8c-35.36-49-29.64-115.29,13.76-157.71ZM268.3,116.48l81.21,13.06a165.93,165.93,0,0,0-32.06,116.37,165,165,0,0,0-120.53-6.31l13.25-81.2A50.8,50.8,0,0,1,268.3,116.48ZM84.21,346.08l108.26-55.43a120.48,120.48,0,0,1,154.06,35.64l86.89,118.49,40.33,55.93-205.13,66a120.46,120.46,0,0,1-145.69-61.5L67.76,396.84A37.83,37.83,0,0,1,84.21,346.08ZM78.17,692a50.81,50.81,0,0,1-22-68.22l39.08-76.41a165.17,165.17,0,0,0,102.65,67.47,165.88,165.88,0,0,0-43.19,116.55Zm186.1,206.61a37.81,37.81,0,0,1-43.19-31.31L201.79,747.17a120.46,120.46,0,0,1,81.46-135.54l205.16-67.74L487.87,760A120.46,120.46,0,0,1,384.4,879.54l-25.21,4L340,886.58h0ZM546.1,981.62a50.83,50.83,0,0,1-71.67-.17l-61.57-61.74A165.21,165.21,0,0,0,511.19,843a165.21,165.21,0,0,0,97.49,76.5Zm212-83.06-75.46-11.95h0l-36.9-5.85h0l-7.53-1.19-.23,0A120.46,120.46,0,0,1,534.51,760L534,544.46l44.19,14,161,53.15c57.4,19,91.66,76,81.42,135.77L819,756.85h0l-1.9,11.84L801.3,867.25A37.81,37.81,0,0,1,758.1,898.56ZM943.35,695.14l-75.8,38.29A165.92,165.92,0,0,0,824,614.36a166.34,166.34,0,0,0,102.06-66.3l39.7,79A50.8,50.8,0,0,1,943.35,695.14Z" />
        </g>
    </g>
</svg>